<svg width="84" height="85" viewBox="0 0 84 85" fill="none" xmlns="http://www.w3.org/2000/svg">
<path d="M82.5537 16.8036C82.717 16.1361 82.3123 15.4612 81.6498 15.2965C80.9868 15.1323 80.3176 15.5397 80.1541 16.2073C79.6677 18.1951 79.0453 20.1702 78.304 22.0781C75.9789 28.0623 74.8445 34.3544 74.9325 40.7801L75.0595 50.054C75.1114 53.858 75.7245 57.623 76.8813 61.2445C77.0498 61.7724 77.5352 62.1084 78.0574 62.1084C78.1829 62.1084 78.3104 62.089 78.4363 62.0483C79.086 61.8375 79.443 61.1363 79.2341 60.4815C78.1526 57.0958 77.5795 53.5759 77.5308 50.0195L77.4037 40.7455C77.3202 34.6436 78.3974 28.6684 80.6054 22.9857C81.3857 20.9769 82.0411 18.8967 82.5537 16.8036Z" fill="#BD2F2F"/>
<path d="M82.4234 67.6502C82.0472 67.0054 81.6864 66.34 81.3511 65.6728C81.0428 65.0594 80.2991 64.8135 79.6905 65.1243C79.0817 65.4349 78.8378 66.1841 79.1461 66.7975C79.5051 67.5119 79.891 68.2233 80.293 68.9123C81.1013 70.2975 81.5286 71.8791 81.5286 73.4862C81.5286 78.4618 77.5112 82.5098 72.5731 82.5098H67.3019C66.7379 82.5098 66.1709 82.4556 65.6167 82.3486L62.1799 81.685C56.1536 80.5217 49.9872 79.9319 43.8519 79.9319C39.9215 79.9319 36.0448 80.5868 32.3295 81.8787C31.1252 82.2974 29.8686 82.5098 28.6055 82.5098L22.5251 82.4551C21.2202 82.4437 19.9084 82.3124 18.6262 82.0652C16.5976 81.6742 14.5244 81.5459 12.4634 81.6833L8.99008 81.9154C7.28364 82.0292 5.65628 81.4438 4.40755 80.2662C3.15898 79.0887 2.47127 77.4913 2.47127 75.7682V73.837C2.47127 73.0499 3.10675 72.4094 3.88806 72.4094H9.38551C11.5826 72.4094 13.7921 72.2075 15.9523 71.8094C16.6237 71.6855 17.0682 71.0369 16.9455 70.3604C16.8227 69.6839 16.1786 69.2357 15.5076 69.3597C13.4935 69.7309 11.4338 69.9191 9.38551 69.9191H3.88822C1.74434 69.9191 0 71.6766 0 73.837V75.7682C0 78.1527 0.991044 80.4548 2.7189 82.0843C4.44676 83.7135 6.79149 84.5562 9.15369 84.4L12.627 84.1679C14.4776 84.0443 16.34 84.1596 18.1617 84.5108C19.5894 84.786 21.05 84.9321 22.503 84.9451L28.5945 85C30.1436 85 31.6714 84.7419 33.1356 84.2328C36.5912 83.0314 40.1967 82.4223 43.8521 82.4223C49.8316 82.4223 55.8415 82.9972 61.7149 84.1309L65.1519 84.7945C65.859 84.9308 66.5823 85 67.3019 85H72.5731C78.8738 85 84 79.8349 84 73.4862C84 71.4357 83.4548 69.4176 82.4234 67.6502Z" fill="#BD2F2F"/>
<path d="M21.3237 70.3119C25.2035 69.1289 29.6468 67.3718 33.1193 65.0831L40.5091 60.2833C47.2356 55.9141 51.2514 48.4913 51.2514 40.4248L51.1707 2.90627C51.1703 2.75636 51.246 2.65758 51.2909 2.61226C51.3359 2.56677 51.4338 2.4904 51.5826 2.4904H81.0979C81.3251 2.4904 81.5098 2.6765 81.5098 2.90544V4.96586C81.5098 6.85229 81.3953 8.75815 81.1694 10.6305C81.087 11.3131 81.5696 11.9339 82.2469 12.0169C82.9234 12.0991 83.5405 11.614 83.6229 10.9311C83.8606 8.95937 83.9814 6.9524 83.9814 4.96586V2.90527C83.9814 1.30339 82.6878 0 81.098 0H51.5826C50.8111 0 50.0864 0.302979 49.5415 0.853154C48.9966 1.40333 48.6976 2.1343 48.6992 2.91158L48.7798 40.4276C48.7798 47.6413 45.1873 54.2816 39.1699 58.1903L31.7801 62.9901C28.6587 65.1273 24.4215 66.6309 20.9047 67.8951C20.2626 68.1282 19.9296 68.8415 20.1608 69.4885C20.3425 69.996 20.8174 70.3119 21.3237 70.3119Z" fill="#BD2F2F"/>
<path d="M59.9591 68.2256C60.1968 68.2721 60.4337 68.2945 60.6675 68.2945C62.4058 68.2945 63.9616 67.0535 64.3055 65.2717C64.6955 63.2498 63.3805 61.2852 61.3739 60.892C60.4015 60.7018 59.4142 60.9042 58.5934 61.4621C57.7725 62.0201 57.2164 62.8666 57.0273 63.8461C56.6375 65.8679 57.9524 67.8325 59.9591 68.2256ZM59.4534 64.3213C59.5163 63.9947 59.7019 63.7125 59.9755 63.5265C60.1716 63.4522 60.279 63.2772 60.9022 63.3365C61.5713 63.4674 62.0095 64.1224 61.8795 64.7962C61.7495 65.4703 61.0987 65.912 60.4308 65.781C59.7618 65.65 59.3234 64.9951 59.4534 64.3213Z" fill="#BD2F2F"/>
<path d="M63.5739 72.6262C63.7352 72.6262 63.8992 72.5941 64.057 72.5264C66.7085 71.39 68.6191 69.0124 69.1683 66.1659C69.6998 63.4103 68.8724 60.5469 66.9552 58.5062C66.486 58.0069 65.7038 57.9851 65.2082 58.4581C64.7126 58.9307 64.6912 59.7188 65.1604 60.2183C66.5304 61.6766 67.1218 63.7224 66.7422 65.6909C66.3499 67.7241 64.9845 69.4228 63.0895 70.2351C62.4615 70.5042 62.169 71.2353 62.4361 71.8682C62.6363 72.3418 63.0932 72.6262 63.5739 72.6262Z" fill="#BD2F2F"/>
<path d="M58.0127 58.8852C58.6281 58.5882 58.8881 57.8445 58.5932 57.2244C58.2983 56.6042 57.56 56.3424 56.9449 56.6396C54.485 57.8269 52.7059 60.1448 52.1861 62.8396C51.6467 65.6359 52.5009 68.5278 54.4712 70.5754C54.7135 70.8274 55.0358 70.9538 55.3586 70.9538C55.6683 70.9538 55.9786 70.837 56.2186 70.6026C56.7086 70.1238 56.7207 69.3356 56.2457 68.842C54.8374 67.3786 54.2268 65.3124 54.6122 63.315C54.989 61.361 56.2285 59.7467 58.0127 58.8852Z" fill="#BD2F2F"/>
<path d="M65.5119 77.1742C65.6732 77.1742 65.8371 77.1422 65.995 77.0744C70.1618 75.2886 73.1647 71.5517 74.0276 67.0788C74.8628 62.7489 73.5628 58.2491 70.55 55.0418C70.0804 54.5421 69.2983 54.5207 68.803 54.9933C68.3072 55.4662 68.2858 56.2542 68.7549 56.7536C71.2209 59.3788 72.2851 63.0609 71.6015 66.6036C70.8955 70.2636 68.4379 73.3213 65.0276 74.7831C64.3996 75.0522 64.1071 75.7833 64.3742 76.4162C64.5742 76.8898 65.0311 77.1742 65.5119 77.1742Z" fill="#BD2F2F"/>
<path d="M47.3413 61.8519C46.4936 66.2462 47.8362 70.7907 50.9329 74.0083C51.1753 74.2603 51.4974 74.3866 51.8201 74.3866C52.1299 74.3866 52.4403 74.2699 52.6802 74.0353C53.1702 73.5567 53.1822 72.7685 52.7071 72.2749C50.1727 69.6414 49.0737 65.9226 49.7674 62.3272C50.4459 58.8105 52.6766 55.9044 55.8878 54.3543C56.5032 54.0572 56.7632 53.3136 56.4681 52.6934C56.1732 52.0733 55.435 51.8115 54.8196 52.1087C50.9542 53.9748 48.1583 57.6172 47.3413 61.8519Z" fill="#BD2F2F"/>
<path d="M57.977 37.0522C58.1757 36.3943 57.8078 35.6987 57.1548 35.4985C56.5019 35.2986 55.8115 35.669 55.6128 36.3269L54.6779 39.4207C54.6753 39.4294 54.673 39.4378 54.6705 39.4463C54.4272 40.3181 54.5826 41.2174 55.0966 41.9136C55.5945 42.5882 56.3789 42.9836 57.2487 42.999L62.0804 43.084L60.8521 50.5866C60.6682 51.7099 61.3062 52.8051 62.3689 53.1911C62.6266 53.2845 62.8925 53.3294 63.155 53.3294C64.0023 53.3294 64.8179 52.8642 65.2323 52.0774L71.4109 40.3511C71.4211 40.332 71.4306 40.3127 71.4397 40.2928C71.8188 39.4727 71.7606 38.517 71.2843 37.7362C70.7879 36.9225 69.9278 36.4182 68.9892 36.3873L65.9641 36.2731L68.7514 29.0323C68.7673 28.9915 68.7809 28.9498 68.7921 28.9075C68.9757 28.2243 68.8389 27.508 68.417 26.9422C67.995 26.3764 67.3503 26.0449 66.6479 26.0324L60.4581 25.9235C59.4091 25.9112 58.4858 26.6458 58.2101 27.7301L57.2804 30.8069C57.0817 31.4648 57.4497 32.1604 58.1025 32.3606C58.7558 32.561 59.4458 32.1901 59.6445 31.5322L60.5835 28.4244C60.5843 28.4217 60.5852 28.4192 60.586 28.4162L66.2991 28.5168L63.1632 36.6632C62.9889 37.1156 63.0431 37.6278 63.3077 38.0332C63.5721 38.4386 64.0177 38.6916 64.4988 38.7097L68.9028 38.8759C69.0694 38.8814 69.1563 39.003 69.179 39.0401C69.2317 39.1266 69.22 39.1887 69.2073 39.2227L63.4187 50.2089L64.7032 42.3627C64.7741 41.9309 64.6553 41.4906 64.3773 41.1546C64.0994 40.8186 63.6909 40.6214 63.2568 40.6137L57.2917 40.5088C57.138 40.506 57.094 40.4464 57.0795 40.4268C57.0283 40.3576 57.0164 40.2468 57.0472 40.1293L57.977 37.0522Z" fill="#BD2F2F"/>
</svg>
