<svg width="94" height="76" viewBox="0 0 94 76" fill="none" xmlns="http://www.w3.org/2000/svg">
<path d="M16.7074 10.1299C19.4584 7.35726 21.2773 5.52744 22.5714 2.09576C22.8742 1.29329 22.4625 0.399769 21.6517 0.100021C20.841 -0.199727 19.9383 0.207809 19.6354 1.01028C18.5748 3.82323 17.1178 5.29019 14.4655 7.95583C13.891 8.57162 13.9149 9.52774 14.5194 10.1147C15.1238 10.7017 16.09 10.707 16.7011 10.1268L16.7074 10.1299Z" fill="#BD2F2F"/>
<path d="M22.8032 75.7831C23.5551 76.207 24.5119 75.9474 24.9401 75.2031C25.3684 74.4589 25.1061 73.5119 24.3542 73.088C10.2731 65.1454 3.13383 53.5989 3.13383 38.7696C3.09713 30.661 5.869 22.7848 10.9875 16.4536C11.4972 15.7739 11.3619 14.8152 10.6837 14.2996C10.0054 13.784 9.03473 13.9021 8.50277 14.5649C2.95555 21.4333 -0.045321 29.9764 0.000517452 38.7696C0.000517452 54.7945 7.67714 67.2481 22.8032 75.7831Z" fill="#BD2F2F"/>
<path d="M44.1803 69.3865C45.7202 71.5206 47.3875 73.5619 49.1732 75.4993C49.5553 75.9103 50.1311 76.0862 50.6807 75.9597C51.2303 75.8332 51.6688 75.424 51.8286 74.8884C51.9883 74.3527 51.8448 73.7734 51.4527 73.3718C49.7517 71.5243 48.1644 69.5772 46.6995 67.5412C45.0958 65.1678 43.1967 63.0036 41.047 61.0996C39.5381 60.0642 37.9511 59.145 36.3 58.3502C30.237 55.1868 21.9337 50.865 21.9337 38.7696C21.9337 31.3976 26.0932 27.217 30.1148 23.1712C30.5392 22.7831 30.7134 22.1953 30.5679 21.6418C30.4224 21.0883 29.981 20.6589 29.4193 20.5248C28.8576 20.3906 28.2669 20.5733 27.8823 21.0003C23.8357 25.0646 18.8004 30.1276 18.8004 38.7696C18.8004 52.7259 28.8396 57.9641 34.8728 61.1105C36.3643 61.8269 37.7997 62.6526 39.167 63.5807C41.0588 65.3181 42.7411 67.2663 44.1803 69.3865Z" fill="#BD2F2F"/>
<path d="M31.3509 0.0519496C30.9487 -0.0512843 30.5215 0.00786076 30.1634 0.216373C29.8052 0.424886 29.5454 0.765685 29.4412 1.1638C27.663 7.94342 24.9417 10.6804 21.177 14.4687C16.4865 19.1906 9.40047 26.3284 9.40047 38.7696C9.37173 42.3787 9.9271 45.969 11.0455 49.4043C11.2577 50.0396 11.8578 50.4684 12.5338 50.4681C12.7009 50.4674 12.8669 50.4407 13.0257 50.389C13.4203 50.2597 13.7468 49.9805 13.9334 49.6129C14.12 49.2453 14.1513 48.8194 14.0205 48.4289C13.0066 45.3085 12.5046 42.0473 12.5338 38.7696C12.5338 27.6046 19.0793 21.0049 23.4111 16.6428C27.2071 12.825 30.4846 9.52668 32.4742 1.94224C32.5785 1.54413 32.5187 1.12132 32.3081 0.766822C32.0974 0.412321 31.7531 0.155174 31.3509 0.0519496Z" fill="#BD2F2F"/>
<path d="M39.1576 73.1113C38.0374 71.4984 36.7923 69.9742 35.4336 68.5522C35.3909 68.5149 35.3459 68.4802 35.2989 68.4483C34.7678 68.0824 33.5756 67.4435 31.9541 66.5968C27.4986 64.4906 23.4366 61.6513 19.9409 58.1998C19.5588 57.791 18.9845 57.6166 18.4364 57.7427C17.8884 57.8688 17.4507 58.2761 17.2899 58.8098C17.129 59.3435 17.2696 59.9216 17.6583 60.3243C21.3859 64.0331 25.7271 67.0834 30.4939 69.3431C31.1551 69.6889 32.8627 70.5836 33.4361 70.9465C34.564 72.2041 35.6185 73.5243 36.5945 74.9008C36.6603 74.9969 36.7308 75.0899 36.8013 75.183L36.8922 75.3039C37.2034 75.7646 37.7392 76.0259 38.2979 75.9895C38.8565 75.9531 39.3531 75.6244 39.6006 75.1273C39.848 74.6302 39.8087 74.0402 39.4975 73.5796C39.4317 73.4834 39.3628 73.3904 39.2923 73.2989L39.1576 73.1113Z" fill="#BD2F2F"/>
<path d="M39.2375 1.00097C39.0841 1.39601 38.959 1.80122 38.863 2.21361C38.0561 5.95586 36.6481 9.54581 34.6926 12.8467C34.4778 13.1988 34.413 13.6209 34.5126 14.0201C34.6122 14.4194 34.868 14.7632 35.2237 14.9758C35.4676 15.123 35.748 15.2003 36.0337 15.1991C36.5829 15.1997 37.0923 14.9155 37.3763 14.4501C39.5061 10.8661 41.04 6.96648 41.9196 2.90057C41.9829 2.62923 42.0661 2.36283 42.1687 2.10352C42.3679 1.58552 42.2729 1.00165 41.9193 0.571844C41.5657 0.142041 41.0073 -0.0683974 40.4545 0.0197981C39.9016 0.107994 39.4383 0.481424 39.239 0.999423L39.2375 1.00097Z" fill="#BD2F2F"/>
<path d="M81.4667 62.03C78.2363 62.03 67.3496 47.8396 65.7845 36.9987C64.1301 25.5329 69.3142 13.1181 72.5525 6.72613C73.2769 5.28435 73.1966 3.57427 72.3401 2.20523C71.4837 0.83619 69.9728 0.00291509 68.346 0.00232762H49.5461C47.3544 -0.0099994 45.4487 1.48743 44.9636 3.60303C42.2188 15.3883 36.7449 20.9072 32.3442 25.3391C28.4416 29.2763 25.067 32.6754 25.067 38.7696C25.067 49.0042 32.117 52.6669 37.7805 55.6133C39.5713 56.4828 41.2919 57.4875 42.9269 58.6185C45.3257 60.6909 47.4366 63.0686 49.2045 65.6897C53.0209 70.7511 56.9658 75.9862 62.6668 75.9862H83.0334C90.3105 75.9862 94 73.3764 94 68.2328C94 62.03 86.4581 62.03 81.4667 62.03ZM83.0334 72.8849H62.6668C58.5371 72.8849 55.0701 68.284 51.7159 63.835C49.7742 60.9725 47.4501 58.3831 44.8069 56.1374C43.0401 54.906 41.1784 53.8135 39.239 52.8701C33.5615 49.916 28.2004 47.1263 28.2004 38.7696C28.2004 33.9454 30.8778 31.2457 34.5845 27.5132C39.2594 22.8037 45.0811 16.9421 48.0217 4.2993C48.1876 3.60128 48.8154 3.10689 49.5398 3.10371H68.3397C68.887 3.09825 69.3964 3.37957 69.6792 3.84339C69.966 4.29363 69.991 4.86033 69.745 5.33361C66.3438 12.0435 60.8997 25.1344 62.6762 37.4329C64.2883 48.5669 75.5244 65.1314 81.4667 65.1314C86.6101 65.1314 90.8667 65.364 90.8667 68.2328C90.8667 69.7432 90.8667 72.8849 83.0334 72.8849Z" fill="#BD2F2F"/>
<path d="M46.6196 24.8599C44.6179 25.39 42.926 26.7141 41.9431 28.5196C41.1122 30.5818 41.3053 32.9102 42.4648 34.8107C42.715 35.3066 43.2134 35.6326 43.7723 35.6661C44.3313 35.6995 44.8658 35.4353 45.1745 34.9729C45.4832 34.5105 45.5193 33.9202 45.2691 33.4244C44.5699 32.3581 44.3916 31.0374 44.7834 29.8268C45.361 28.8626 46.2956 28.1594 47.3888 27.8667C47.9314 27.7307 48.3595 27.3185 48.5119 26.7853C48.6642 26.2522 48.5176 25.6791 48.1273 25.2819C47.7369 24.8848 47.1622 24.7239 46.6196 24.8599Z" fill="#BD2F2F"/>
</svg>
