<svg width="86" height="86" viewBox="0 0 86 86" fill="none" xmlns="http://www.w3.org/2000/svg">
<path d="M83.7813 55.6562H56.05L50.0313 52.0422V44.4062C50.0311 44.2924 50.0169 44.1791 49.9891 44.0687L48.7516 39.1328L55.3328 31.2437C55.5425 30.9907 55.6569 30.6723 55.6563 30.3437V26.125C55.6574 25.8649 55.5856 25.6097 55.4488 25.3884C55.3121 25.1672 55.116 24.9887 54.8828 24.8734L52.8438 23.8469V20.5C52.8438 20.127 52.6956 19.7693 52.4319 19.5056C52.1682 19.2419 51.8105 19.0937 51.4375 19.0937H48.625V16.2812C48.625 15.9083 48.4769 15.5506 48.2131 15.2869C47.9494 15.0231 47.5917 14.875 47.2188 14.875H45.2781L45.6578 14.1016C45.8258 13.7653 45.856 13.3769 45.7422 13.0187L44.336 8.79999C44.2229 8.46527 43.9879 8.18539 43.6778 8.01602C43.3678 7.84665 43.0053 7.80021 42.6625 7.88593L40.0047 8.54687L40.061 8.4203C40.1653 8.19153 40.206 7.93886 40.1788 7.68889C40.1516 7.43893 40.0574 7.20093 39.9063 6.99999L35.6875 1.37499C35.4899 1.11028 35.205 0.924093 34.8832 0.849442C34.5615 0.774792 34.2237 0.816503 33.9297 0.967179L25.4922 5.18593C25.3105 5.27504 25.1508 5.40317 25.0244 5.56119C24.898 5.7192 24.808 5.90318 24.761 6.09999L23.425 11.4437L16.9282 20.1062C16.2434 21.0139 15.7897 22.0744 15.6059 23.1964C15.4222 24.3184 15.514 25.4682 15.8735 26.5469L16.2813 27.7703C16.3204 27.8713 16.3533 27.9746 16.3797 28.0797L19.7969 41.7484C21.1358 47.0794 20.7919 52.6941 18.8125 57.8219L14.9735 67.8062C14.9071 67.9667 14.8736 68.1388 14.875 68.3125V75.3437C14.878 77.9535 15.9161 80.4556 17.7615 82.301C19.6069 84.1464 22.109 85.1845 24.7188 85.1875H28.9375C29.0318 85.1851 29.1259 85.1757 29.2188 85.1594L38.5563 83.289C41.5254 82.699 44.5728 82.6135 47.5703 83.0359L62.4907 85.1734C62.5556 85.1851 62.6216 85.1898 62.6875 85.1875H83.7813C84.1542 85.1875 84.5119 85.0393 84.7756 84.7756C85.0394 84.5119 85.1875 84.1542 85.1875 83.7812V57.0625C85.1875 56.6895 85.0394 56.3318 84.7756 56.0681C84.5119 55.8044 84.1542 55.6562 83.7813 55.6562ZM82.375 82.375H62.786L47.9641 80.2515C44.6486 79.7824 41.2776 79.8775 37.9938 80.5328L28.7969 82.375H24.7188C22.854 82.375 21.0655 81.6342 19.7469 80.3156C18.4283 78.997 17.6875 77.2085 17.6875 75.3437V68.5797L21.4422 58.8344C23.6227 53.1666 24.0008 46.9641 22.525 41.0734L19.1078 27.4047C19.0657 27.2219 19.0094 27.0531 18.9532 26.8844L18.5453 25.6609C18.3317 25.013 18.2776 24.3231 18.3878 23.6498C18.498 22.9765 18.7691 22.3398 19.1782 21.7937L25.8438 12.9062C25.9568 12.7554 26.0381 12.5831 26.0828 12.4L27.3344 7.4078L34.1407 4.00468L37.15 8.02655L30.4703 22.7359L33.0297 23.8891L38.5141 11.8234L42.0719 10.9234L42.8875 13.3562L37.5297 24.0859L40.0328 25.3516L43.8719 17.6875H45.8125V20.1062L41.7907 26.8141L44.2094 28.2484L48.0203 21.9062H50.0313V24.2547L46.0938 29.5L48.3438 31.1875L51.8594 26.5047L52.8438 26.9969V29.8375L46.136 37.8812C45.9954 38.051 45.8967 38.2515 45.8478 38.4665C45.799 38.6814 45.8013 38.9049 45.8547 39.1187L47.2188 44.575V52.8437C47.2174 53.0881 47.2804 53.3284 47.4013 53.5407C47.5223 53.753 47.697 53.9297 47.9078 54.0531L54.9391 58.2719C55.1562 58.4007 55.4039 58.4687 55.6563 58.4687H82.375V82.375Z" fill="#BD2F2F"/>
<path d="M58.4689 5.22112V7.84378C58.4689 8.05753 58.5176 8.26848 58.6114 8.46058C58.7051 8.65267 58.8414 8.82086 59.01 8.95237C59.1785 9.08388 59.3748 9.17524 59.5839 9.21951C59.793 9.26377 60.0095 9.25978 60.2168 9.20784L67.1075 7.48378L60.2168 15.3588C60.0608 15.537 59.9523 15.7518 59.9015 15.9832C59.8506 16.2145 59.859 16.455 59.9259 16.6822C59.9928 16.9095 60.1161 17.1162 60.2842 17.283C60.4523 17.4499 60.6599 17.5717 60.8876 17.6369L66.1146 19.1289L56.652 21.9682L57.4592 24.6625L71.5217 20.4438C71.8132 20.3568 72.0687 20.1775 72.2498 19.933C72.4309 19.6884 72.5277 19.3917 72.5258 19.0874C72.5239 18.7832 72.4233 18.4877 72.2393 18.2454C72.0552 18.0032 71.7974 17.8271 71.5048 17.7438L63.7929 15.5416L72.1756 5.9594C72.3736 5.73357 72.4941 5.45028 72.5194 5.151C72.5448 4.85173 72.4736 4.55221 72.3164 4.29629C72.1592 4.04037 71.9242 3.8415 71.6458 3.72881C71.3674 3.61611 71.0603 3.59551 70.7693 3.67003L61.2814 6.04237V2.21878C61.2815 1.95145 61.2055 1.68961 61.0622 1.46395C60.9188 1.23829 60.7142 1.05816 60.4721 0.944669C60.2301 0.831176 59.9607 0.789025 59.6956 0.823154C59.4304 0.857283 59.1805 0.96628 58.9751 1.13737L50.5376 8.16862L52.3376 10.3314L58.4689 5.22112Z" fill="#BD2F2F"/>
<path d="M15.8777 54.3091L6.49521 57.1216L13.12 49.5475C13.2571 49.3908 13.3576 49.2056 13.4143 49.0053C13.4711 48.805 13.4826 48.5946 13.4482 48.3893C13.4138 48.184 13.3342 47.9889 13.2152 47.8181C13.0962 47.6473 12.9407 47.505 12.7601 47.4016L5.95521 43.5147L13.8105 41.546C14.0392 41.4888 14.2497 41.375 14.4229 41.2152C14.5961 41.0554 14.7264 40.8545 14.8017 40.6312C14.877 40.4079 14.895 40.1692 14.854 39.9372C14.813 39.7051 14.7144 39.487 14.5671 39.303L10.3104 33.9888L13.8105 33.1141L13.1271 30.386L7.50208 31.7922C7.27345 31.8494 7.06286 31.9632 6.88966 32.123C6.71647 32.2829 6.58622 32.4837 6.51089 32.707C6.43557 32.9303 6.41758 33.169 6.45857 33.4011C6.49957 33.6331 6.59824 33.8512 6.74552 34.0352L11.0022 39.355L1.87708 41.636C1.60462 41.7035 1.35862 41.8511 1.17072 42.0596C0.982829 42.2682 0.861648 42.5282 0.822776 42.8062C0.783904 43.0842 0.829121 43.3674 0.952606 43.6195C1.07609 43.8716 1.27219 44.081 1.51567 44.2207L9.86599 48.9935L1.15567 58.9497C0.977724 59.1534 0.862268 59.404 0.823144 59.6716C0.78402 59.9392 0.822886 60.2124 0.935085 60.4585C1.04728 60.7045 1.22806 60.913 1.45574 61.059C1.68343 61.2049 1.94836 61.2821 2.2188 61.2813C2.35547 61.2811 2.4914 61.2612 2.62239 61.2222L16.6849 57.0035L15.8777 54.3091Z" fill="#BD2F2F"/>
<path d="M65.299 36.693C65.452 36.4381 65.5203 36.1412 65.4941 35.8451C65.4679 35.5489 65.3485 35.2687 65.153 35.0447C64.9576 34.8206 64.6961 34.6643 64.4063 34.5981C64.1164 34.532 63.8131 34.5594 63.5398 34.6764L53.696 38.8952L54.8041 41.4799L60.6499 38.9753L58.6699 42.2758C58.5457 42.4808 58.4759 42.7141 58.4672 42.9537C58.4585 43.1932 58.5112 43.431 58.6203 43.6444C58.7293 43.8579 58.8911 44.0399 59.0903 44.1733C59.2895 44.3066 59.5195 44.3868 59.7584 44.4063L68.1677 45.1094L59.5334 47.268C59.2442 47.3396 58.9853 47.5011 58.7939 47.7293C58.6025 47.9575 58.4885 48.2406 58.4683 48.5378C58.4481 48.8349 58.5228 49.1308 58.6816 49.3828C58.8404 49.6348 59.0751 49.8298 59.3519 49.9398L66.3832 52.7523L67.4295 50.1395L64.4355 48.9428L77.0918 45.7788C77.4248 45.7066 77.7204 45.516 77.9234 45.2423C78.1265 44.9686 78.2233 44.6306 78.1958 44.2909C78.1683 43.9512 78.0183 43.6331 77.7739 43.3957C77.5295 43.1582 77.2071 43.0176 76.8668 43L62.2418 41.7808L65.299 36.693Z" fill="#BD2F2F"/>
</svg>
