<svg width="11" height="14" viewBox="0 0 11 14" fill="none" xmlns="http://www.w3.org/2000/svg">
<path d="M5.35294 0C2.40141 0 0 2.39203 0 5.33203C0 6.49551 0.368941 7.60102 1.06784 8.52852L5.02298 13.8346C5.03286 13.8474 5.04796 13.8524 5.05894 13.8639C5.25659 14.0747 5.5418 14.0216 5.68263 13.8346C6.82157 12.3208 8.90921 9.49375 9.71188 8.42734L9.71243 8.42598L9.71737 8.41941C10.3641 7.51434 10.7059 6.44684 10.7059 5.33203C10.7059 2.39203 8.30447 0 5.35294 0ZM5.35294 8.20859C3.7638 8.20859 2.4651 6.91496 2.4651 5.33203C2.4651 3.7491 3.7638 2.45547 5.35294 2.45547C6.94208 2.45547 8.24078 3.7491 8.24078 5.33203C8.24078 6.91496 6.94208 8.20859 5.35294 8.20859Z" fill="#0A7666"/>
</svg>
