<svg width="12" height="9" viewBox="0 0 12 9" fill="none" xmlns="http://www.w3.org/2000/svg">
<path d="M1.02591 0H10.9741C11.5049 0.000744992 11.9478 0.414836 11.9957 0.955452L6.66524 5.57788C6.28319 5.91101 5.72106 5.91126 5.33877 5.57838L0.00412914 0.959798C0.0497898 0.417444 0.493402 0.000744992 1.02591 0ZM1.02591 9C0.801368 9.00025 0.583023 8.92476 0.404752 8.78519L3.37986 5.67373C3.43499 5.61699 3.45612 5.53442 3.43523 5.45744C3.41435 5.38033 3.35472 5.32073 3.27894 5.30111C3.20304 5.2815 3.12277 5.30496 3.06861 5.3627L0.121195 8.4451C0.041532 8.29325 -0.000121173 8.12352 2.64774e-07 7.95105V1.5394L5.05752 5.91809C5.60205 6.39203 6.40257 6.39178 6.94673 5.91722L12 1.53518V7.95105C12.0002 8.12414 11.9582 8.29449 11.878 8.44672L8.91293 5.3622C8.82853 5.27529 8.69143 5.27442 8.60593 5.36022C8.52056 5.44614 8.51898 5.58632 8.60253 5.67411L11.594 8.78619C11.4159 8.92513 11.1981 9.00025 10.9741 9H1.02591Z" fill="#0A7666"/>
</svg>
