<svg width="12" height="12" viewBox="0 0 12 12" fill="none" xmlns="http://www.w3.org/2000/svg">
<path d="M11.8876 4.82428C11.437 2.46532 9.53468 0.563034 7.17572 0.112425C2.95586 -0.693615 -0.693615 2.95586 0.112425 7.17572C0.563058 9.53466 2.46534 11.437 4.82428 11.8876C9.04414 12.6936 12.6936 9.04414 11.8876 4.82428ZM8.78028 8.78028C8.63379 8.92676 8.44191 9 8.25 9C8.0581 9 7.86621 8.92676 7.71973 8.78028L5.46973 6.53027C5.3291 6.38965 5.25 6.19922 5.25 6V3C5.25 2.58543 5.58581 2.25 6 2.25C6.41419 2.25 6.75 2.58546 6.75 3V5.68945L8.78028 7.71973C9.07325 8.0127 9.07325 8.48731 8.78028 8.78028Z" fill="#0A7666"/>
</svg>
