<svg width="27" height="27" viewBox="0 0 27 27" fill="none" xmlns="http://www.w3.org/2000/svg">
<path d="M23.046 3.95414C20.4962 1.40437 17.1061 0 13.5001 0C9.8941 0 6.50392 1.40437 3.95406 3.95414C1.40428 6.50392 0 9.8941 0 13.5001C0 17.106 1.40428 20.4962 3.95406 23.0459C6.50392 25.5958 9.89401 27 13.5 27C17.106 27 20.4961 25.5957 23.0459 23.0459C25.5957 20.4962 27 17.106 27 13.5001C27.0001 9.8941 25.5958 6.50392 23.046 3.95414ZM21.1035 10.586L13.4566 19.116C13.2429 19.3543 12.9356 19.4911 12.6136 19.4911C12.6136 19.4911 12.6136 19.4911 12.6136 19.4911C12.6136 19.4911 12.6136 19.4911 12.6135 19.4911C12.3341 19.491 12.0661 19.3888 11.859 19.2032L6.15768 14.0922C5.69318 13.6758 5.65411 12.9591 6.07048 12.4948L7.31109 11.1109C7.5248 10.8725 7.83206 10.7357 8.15411 10.7357C8.43352 10.7357 8.70144 10.838 8.90846 11.0236L11.93 13.7325C12.0412 13.8321 12.1853 13.887 12.3359 13.887C12.5098 13.887 12.6754 13.8134 12.7902 13.6854L18.0347 7.83519C18.2484 7.59685 18.5557 7.46006 18.8777 7.46006C19.1572 7.46006 19.4251 7.5623 19.6321 7.748L21.016 8.98869C21.4808 9.40498 21.5199 10.1216 21.1035 10.586Z" fill="#0A7666"/>
</svg>
