<svg width="15" height="9" viewBox="0 0 15 9" fill="none" xmlns="http://www.w3.org/2000/svg">
<path d="M6.63345 0.331395L0.365812 6.15804C0.121904 6.37262 -9.33802e-08 6.64057 -7.93117e-08 6.96242C-6.52431e-08 7.28427 0.122039 7.55221 0.365812 7.76679L1.088 8.44599C1.3255 8.66648 1.61419 8.77673 1.95437 8.77673C2.28812 8.77673 2.58025 8.66651 2.83049 8.44599L7.50003 4.1027L12.1792 8.44618C12.4167 8.66661 12.7054 8.77685 13.0456 8.77685C13.3793 8.77685 13.6715 8.66664 13.9217 8.44618L14.6438 7.76692C14.8813 7.54645 15 7.27822 15 6.96254C15 6.64673 14.8813 6.37856 14.6438 6.15816L8.37612 0.331395C8.12581 0.110839 7.83374 0.000496522 7.5 0.000496536C7.15981 0.00046508 6.87096 0.110839 6.63345 0.331395Z" fill="white"/>
</svg>
