<svg width="21" height="21" viewBox="0 0 21 21" fill="none" xmlns="http://www.w3.org/2000/svg">
<path d="M15.9657 13.8919C15.2797 13.2146 14.4231 13.2146 13.7414 13.8919C13.2214 14.4076 12.7014 14.9232 12.1901 15.4476C12.0502 15.5918 11.9322 15.6224 11.7618 15.5263C11.4253 15.3427 11.067 15.1941 10.7436 14.9931C9.23594 14.0449 7.973 12.8257 6.85428 11.4535C6.29929 10.7718 5.80548 10.042 5.46025 9.22049C5.39033 9.05443 5.40344 8.94518 5.53891 8.80972C6.05894 8.30718 6.56586 7.79153 7.07715 7.27588C7.78946 6.55922 7.78946 5.7202 7.07278 4.99917C6.66637 4.58839 6.25996 4.18636 5.85355 3.77559C5.43403 3.35608 5.01888 2.9322 4.59499 2.51706C3.9089 1.84847 3.05237 1.84847 2.37065 2.52143C1.84625 3.03708 1.3437 3.56584 0.810561 4.07275C0.31675 4.54033 0.0676592 5.11278 0.0152191 5.78138C-0.0678111 6.86948 0.198759 7.89641 0.57458 8.89712C1.3437 10.9684 2.51486 12.8082 3.93512 14.495C5.85355 16.776 8.14343 18.5808 10.8222 19.883C12.0284 20.4686 13.2782 20.9187 14.6373 20.993C15.5724 21.0454 16.3853 20.8095 17.0364 20.0797C17.4821 19.5815 17.9847 19.1271 18.4567 18.6507C19.1559 17.9428 19.1602 17.0863 18.4654 16.3871C17.6351 15.5525 16.8004 14.7222 15.9657 13.8919Z" fill="white"/>
<path d="M15.1311 10.4091L16.7436 10.1338C16.4902 8.6524 15.7909 7.31084 14.729 6.24459C13.6059 5.12152 12.1857 4.4136 10.6212 4.1951L10.394 5.81634C11.6045 5.98676 12.7057 6.533 13.5754 7.40261C14.3969 8.22415 14.9344 9.26419 15.1311 10.4091Z" fill="white"/>
<path d="M17.6526 3.39978C15.791 1.5382 13.4355 0.362702 10.8354 0L10.6081 1.62123C12.8543 1.93587 14.8907 2.95405 16.4989 4.55781C18.024 6.0829 19.0248 8.01003 19.3875 10.1294L21 9.85412C20.5761 7.39824 19.4181 5.16959 17.6526 3.39978Z" fill="white"/>
</svg>
