<svg width="22" height="28" viewBox="0 0 22 28" fill="none" xmlns="http://www.w3.org/2000/svg">
<path d="M11 0C4.93477 0 0 4.78406 0 10.6641C0 12.991 0.758154 15.202 2.19436 17.057L10.3219 27.6692C10.3423 27.6949 10.3733 27.7047 10.3958 27.7277C10.802 28.1494 11.3881 28.0433 11.6775 27.6692C14.018 24.6417 18.3079 18.9875 19.9574 16.8547L19.9585 16.852L19.9687 16.8388C21.2977 15.0287 22 12.8937 22 10.6641C22 4.78406 17.0652 0 11 0ZM11 16.4172C7.73441 16.4172 5.06564 13.8299 5.06564 10.6641C5.06564 7.4982 7.73441 4.91094 11 4.91094C14.2656 4.91094 16.9344 7.4982 16.9344 10.6641C16.9344 13.8299 14.2656 16.4172 11 16.4172Z" fill="#065F51"/>
</svg>
