<svg width="17" height="21" viewBox="0 0 17 21" fill="none" xmlns="http://www.w3.org/2000/svg">
<path d="M8.5 0C3.81323 0 0 3.58805 0 7.99805C0 9.74326 0.585846 11.4015 1.69564 12.7928L7.97605 20.7519C7.99174 20.7712 8.01572 20.7786 8.03315 20.7958C8.347 21.112 8.7999 21.0324 9.02351 20.7519C10.8321 18.4813 14.1471 14.2406 15.4216 12.641L15.4225 12.639L15.4303 12.6291C16.4573 11.2715 17 9.67025 17 7.99805C17 3.58805 13.1868 0 8.5 0ZM8.5 12.3129C5.97659 12.3129 3.91436 10.3724 3.91436 7.99805C3.91436 5.62365 5.97659 3.6832 8.5 3.6832C11.0234 3.6832 13.0856 5.62365 13.0856 7.99805C13.0856 10.3724 11.0234 12.3129 8.5 12.3129Z" fill="white"/>
</svg>
