<svg width="23" height="23" viewBox="0 0 23 23" fill="none" xmlns="http://www.w3.org/2000/svg">
<path d="M23 15.5654C23 12.213 20.7411 9.28391 17.5557 8.40127C17.3555 3.73483 13.4971 0 8.78223 0C3.93961 0 0 3.93961 0 8.78223C0 10.3605 0.42009 11.8971 1.2178 13.2462L0.0322876 17.532L4.31829 16.3466C5.55838 17.08 6.95728 17.493 8.40109 17.5553C9.28356 20.7409 12.2128 23 15.5654 23C16.9036 23 18.2049 22.6436 19.3483 21.9664L22.9675 22.9675L21.9664 19.3483C22.6436 18.2049 23 16.9036 23 15.5654ZM4.53097 14.8895L1.96516 15.5993L2.67496 13.0335L2.51317 12.7804C1.75072 11.5876 1.34766 10.205 1.34766 8.78223C1.34766 4.68275 4.68275 1.34766 8.78223 1.34766C12.8817 1.34766 16.2168 4.68275 16.2168 8.78223C16.2168 12.8817 12.8817 16.2168 8.78223 16.2168C7.35947 16.2168 5.97707 15.8137 4.784 15.0513L4.53097 14.8895ZM21.0348 21.0348L19.1309 20.5081L18.8767 20.6735C17.891 21.3139 16.7459 21.6523 15.5654 21.6523C12.9305 21.6523 10.6151 19.9486 9.79472 17.5057C13.8296 17.0405 17.0405 13.8296 17.5058 9.79455C19.9486 10.6151 21.6523 12.9305 21.6523 15.5654C21.6523 16.7459 21.3139 17.891 20.6735 18.8767L20.5081 19.1309L21.0348 21.0348Z" fill="white"/>
<path d="M8.1084 12.1738H9.45605V13.5215H8.1084V12.1738Z" fill="white"/>
<path d="M10.1299 6.73828C10.1299 7.12099 9.97406 7.47423 9.69119 7.73306L8.1084 9.18179V10.8262H9.45605V9.77525L10.601 8.7273C11.158 8.21754 11.4775 7.49265 11.4775 6.73828C11.4775 5.252 10.2685 4.04297 8.78223 4.04297C7.29594 4.04297 6.08691 5.252 6.08691 6.73828H7.43457C7.43457 5.99514 8.03909 5.39062 8.78223 5.39062C9.52537 5.39062 10.1299 5.99514 10.1299 6.73828Z" fill="white"/>
</svg>
